<svg aria-hidden="true" style="width:0;height:0;position:absolute;overflow:hidden" xmlns="http://www.w3.org/2000/svg"><defs><symbol id="icon-dots" viewBox="0 0 205 32"><path fill="#f8d24e" style="fill:var(--color1,#f8d24e)" d="M156.54 29.616c0 .982-.745 1.778-1.664 1.778s-1.664-.796-1.664-1.778.745-1.778 1.664-1.778 1.664.796 1.664 1.778zM160.146 27.245c0 .982-.745 1.778-1.664 1.778s-1.664-.796-1.664-1.778.745-1.778 1.664-1.778 1.664.796 1.664 1.778zM164.305 24.578c0 .982-.745 1.778-1.664 1.778s-1.664-.796-1.664-1.778.745-1.778 1.664-1.778 1.664.796 1.664 1.778zM168.189 22.206c0 .982-.745 1.778-1.664 1.778s-1.664-.796-1.664-1.778.745-1.778 1.664-1.778 1.664.796 1.664 1.778zM165.969 28.431c0 .982-.745 1.778-1.664 1.778s-1.664-.796-1.664-1.778.745-1.778 1.664-1.778 1.664.796 1.664 1.778zM169.575 26.06c0 .982-.745 1.778-1.664 1.778s-1.664-.796-1.664-1.778.745-1.778 1.664-1.778 1.664.796 1.664 1.778zM173.735 23.392c0 .982-.745 1.778-1.664 1.778s-1.664-.796-1.664-1.778.745-1.778 1.664-1.778 1.664.796 1.664 1.778zM177.619 21.021c0 .982-.745 1.778-1.664 1.778s-1.664-.796-1.664-1.778.745-1.778 1.664-1.778 1.664.796 1.664 1.778zM174.014 27.542c0 .982-.745 1.778-1.664 1.778s-1.664-.796-1.664-1.778.745-1.778 1.664-1.778 1.664.796 1.664 1.778zM177.619 25.171c0 .982-.745 1.778-1.664 1.778s-1.664-.796-1.664-1.778.745-1.778 1.664-1.778 1.664.796 1.664 1.778zM181.779 22.503c0 .982-.745 1.778-1.664 1.778s-1.664-.796-1.664-1.778.745-1.778 1.664-1.778 1.664.796 1.664 1.778zM185.662 20.132c0 .982-.745 1.778-1.664 1.778s-1.664-.796-1.664-1.778.745-1.778 1.664-1.778 1.664.796 1.664 1.778zM181.778 26.356c0 .982-.745 1.778-1.664 1.778s-1.664-.796-1.664-1.778.745-1.778 1.664-1.778 1.664.796 1.664 1.778zM185.383 23.985c0 .982-.745 1.778-1.664 1.778s-1.664-.796-1.664-1.778.745-1.778 1.664-1.778 1.664.796 1.664 1.778zM189.543 21.318c0 .982-.745 1.778-1.664 1.778s-1.664-.796-1.664-1.778.745-1.778 1.664-1.778 1.664.796 1.664 1.778zM193.427 18.947c0 .982-.745 1.778-1.664 1.778s-1.664-.796-1.664-1.778.745-1.778 1.664-1.778 1.664.796 1.664 1.778zM184.276 29.616c0 .982-.745 1.778-1.664 1.778s-1.664-.796-1.664-1.778.745-1.778 1.664-1.778 1.664.796 1.664 1.778zM187.882 27.245c0 .982-.745 1.778-1.664 1.778s-1.664-.796-1.664-1.778.745-1.778 1.664-1.778 1.664.796 1.664 1.778zM192.874 29.913c0 .982-.745 1.778-1.664 1.778s-1.664-.796-1.664-1.778.745-1.778 1.664-1.778 1.664.796 1.664 1.778zM192.042 24.578c0 .982-.745 1.778-1.664 1.778s-1.664-.796-1.664-1.778.745-1.778 1.664-1.778 1.664.796 1.664 1.778zM197.034 27.245c0 .982-.745 1.778-1.664 1.778s-1.664-.796-1.664-1.778.745-1.778 1.664-1.778 1.664.796 1.664 1.778zM200.918 29.913c0 .982-.745 1.778-1.664 1.778s-1.664-.796-1.664-1.778.745-1.778 1.664-1.778 1.664.796 1.664 1.778zM195.925 22.206c0 .982-.745 1.778-1.664 1.778s-1.664-.796-1.664-1.778.745-1.778 1.664-1.778 1.664.796 1.664 1.778zM200.918 24.874c0 .982-.745 1.778-1.664 1.778s-1.664-.796-1.664-1.778.745-1.778 1.664-1.778 1.664.796 1.664 1.778zM204.801 27.542c0 .982-.745 1.778-1.664 1.778s-1.664-.796-1.664-1.778.745-1.778 1.664-1.778 1.664.796 1.664 1.778zM139.622 10.055c0 .982-.745 1.778-1.664 1.778s-1.664-.796-1.664-1.778.745-1.778 1.664-1.778 1.664.796 1.664 1.778zM143.227 7.684c0 .982-.745 1.778-1.664 1.778s-1.664-.796-1.664-1.778.745-1.778 1.664-1.778 1.664.796 1.664 1.778zM147.388 5.016c0 .982-.745 1.778-1.664 1.778s-1.664-.796-1.664-1.778.745-1.778 1.664-1.778 1.664.796 1.664 1.778zM151.27 2.645c0 .982-.745 1.778-1.664 1.778s-1.664-.796-1.664-1.778.745-1.778 1.664-1.778 1.664.796 1.664 1.778zM132.687 9.758c0 .982-.745 1.778-1.664 1.778s-1.664-.796-1.664-1.778.745-1.778 1.664-1.778 1.664.796 1.664 1.778zM136.293 7.387c0 .982-.745 1.778-1.664 1.778s-1.664-.796-1.664-1.778.745-1.778 1.664-1.778 1.664.796 1.664 1.778zM140.453 4.72c0 .982-.745 1.778-1.664 1.778s-1.664-.796-1.664-1.778.745-1.778 1.664-1.778 1.664.796 1.664 1.778zM144.335 2.349c0 .982-.745 1.778-1.664 1.778s-1.664-.796-1.664-1.778.745-1.778 1.664-1.778 1.664.796 1.664 1.778zM148.219 29.616c0 .982-.745 1.778-1.664 1.778s-1.664-.796-1.664-1.778.745-1.778 1.664-1.778 1.664.796 1.664 1.778zM151.824 27.245c0 .982-.745 1.778-1.664 1.778s-1.664-.796-1.664-1.778.745-1.778 1.664-1.778 1.664.796 1.664 1.778zM155.984 24.578c0 .982-.745 1.778-1.664 1.778s-1.664-.796-1.664-1.778.745-1.778 1.664-1.778 1.664.796 1.664 1.778zM159.868 22.206c0 .982-.745 1.778-1.664 1.778s-1.664-.796-1.664-1.778.745-1.778 1.664-1.778 1.664.796 1.664 1.778zM143.781 27.838c0 .982-.745 1.778-1.664 1.778s-1.664-.796-1.664-1.778.745-1.778 1.664-1.778 1.664.796 1.664 1.778zM147.387 25.467c0 .982-.745 1.778-1.664 1.778s-1.664-.796-1.664-1.778.745-1.778 1.664-1.778 1.664.796 1.664 1.778zM151.547 22.8c0 .982-.745 1.778-1.664 1.778s-1.664-.796-1.664-1.778.745-1.778 1.664-1.778 1.664.796 1.664 1.778zM155.43 20.429c0 .982-.745 1.778-1.664 1.778s-1.664-.796-1.664-1.778.745-1.778 1.664-1.778 1.664.796 1.664 1.778zM145.446 21.614c0 .982-.745 1.778-1.664 1.778s-1.664-.796-1.664-1.778.745-1.778 1.664-1.778 1.664.796 1.664 1.778zM149.051 19.243c0 .982-.745 1.778-1.664 1.778s-1.664-.796-1.664-1.778.745-1.778 1.664-1.778 1.664.796 1.664 1.778zM153.212 16.575c0 .982-.745 1.778-1.664 1.778s-1.664-.796-1.664-1.778.745-1.778 1.664-1.778 1.664.796 1.664 1.778zM157.095 14.204c0 .982-.745 1.778-1.664 1.778s-1.664-.796-1.664-1.778.745-1.778 1.664-1.778 1.664.796 1.664 1.778zM145.446 11.24c0 .982-.745 1.778-1.664 1.778s-1.664-.796-1.664-1.778.745-1.778 1.664-1.778 1.664.796 1.664 1.778zM149.051 8.869c0 .982-.745 1.778-1.664 1.778s-1.664-.796-1.664-1.778.745-1.778 1.664-1.778 1.664.796 1.664 1.778zM153.212 6.202c0 .982-.745 1.778-1.664 1.778s-1.664-.796-1.664-1.778.745-1.778 1.664-1.778 1.664.796 1.664 1.778zM157.095 3.831c0 .982-.745 1.778-1.664 1.778s-1.664-.796-1.664-1.778.745-1.778 1.664-1.778 1.664.796 1.664 1.778zM144.613 16.872c0 .982-.745 1.778-1.664 1.778s-1.664-.796-1.664-1.778.745-1.778 1.664-1.778 1.664.796 1.664 1.778zM148.22 14.501c0 .982-.745 1.778-1.664 1.778s-1.664-.796-1.664-1.778.745-1.778 1.664-1.778 1.664.796 1.664 1.778zM152.379 11.833c0 .982-.745 1.778-1.664 1.778s-1.664-.796-1.664-1.778.745-1.778 1.664-1.778 1.664.796 1.664 1.778zM156.262 9.462c0 .982-.745 1.778-1.664 1.778s-1.664-.796-1.664-1.778.745-1.778 1.664-1.778 1.664.796 1.664 1.778zM127.14 8.276c0 .982-.745 1.778-1.664 1.778s-1.664-.796-1.664-1.778.745-1.778 1.664-1.778 1.664.796 1.664 1.778zM130.746 5.905c0 .982-.745 1.778-1.664 1.778s-1.664-.796-1.664-1.778.745-1.778 1.664-1.778 1.664.796 1.664 1.778zM134.906 3.238c0 .982-.745 1.778-1.664 1.778s-1.664-.796-1.664-1.778.745-1.778 1.664-1.778 1.664.796 1.664 1.778z"/><path fill="#f8d24e" style="fill:var(--color1,#f8d24e)" d="M132.964 10.055c.919 0 1.665-.796 1.665-1.778s-.746-1.778-1.665-1.778-1.664.796-1.664 1.778.745 1.778 1.664 1.778zM56.441 21.475c.141.985-.491 1.906-1.413 2.057s-1.784-.525-1.925-1.51c-.141-.985.491-1.906 1.413-2.057s1.784.525 1.925 1.51zM59.717 18.504c.141.985-.491 1.906-1.413 2.057s-1.784-.525-1.925-1.51c-.141-.985.491-1.906 1.413-2.057s1.784.525 1.925 1.51zM63.506 15.144c.141.985-.491 1.906-1.413 2.057s-1.784-.525-1.925-1.51c-.141-.985.491-1.906 1.413-2.057s1.784.525 1.925 1.51zM67.06 12.128c.141.985-.491 1.906-1.413 2.057s-1.784-.525-1.925-1.51c-.141-.985.491-1.906 1.413-2.057s1.784.525 1.925 1.51zM3.481 21.473c0 .997-.779 1.805-1.741 1.805s-1.741-.808-1.741-1.805c0-.997.779-1.805 1.741-1.805s1.741.808 1.741 1.805zM7.252 19.067c0 .997-.779 1.805-1.741 1.805s-1.741-.808-1.741-1.805c0-.997.779-1.805 1.741-1.805s1.741.808 1.741 1.805zM11.605 16.36c0 .997-.779 1.805-1.741 1.805s-1.741-.808-1.741-1.805c0-.997.779-1.805 1.741-1.805s1.741.808 1.741 1.805zM15.666 13.953c0 .997-.779 1.805-1.741 1.805s-1.741-.808-1.741-1.805c0-.997.779-1.805 1.741-1.805s1.741.808 1.741 1.805zM5.223 25.984c0 .997-.779 1.805-1.741 1.805s-1.741-.808-1.741-1.805c0-.997.779-1.805 1.741-1.805s1.741.808 1.741 1.805zM8.994 23.578c0 .997-.779 1.805-1.741 1.805s-1.741-.808-1.741-1.805c0-.997.779-1.805 1.741-1.805s1.741.808 1.741 1.805zM13.346 20.871c0 .997-.779 1.805-1.741 1.805s-1.741-.808-1.741-1.805c0-.997.779-1.805 1.741-1.805s1.741.808 1.741 1.805zM17.407 18.465c0 .997-.779 1.805-1.741 1.805s-1.741-.808-1.741-1.805c0-.997.779-1.805 1.741-1.805s1.741.808 1.741 1.805zM9.573 28.39c0 .997-.779 1.805-1.741 1.805s-1.741-.808-1.741-1.805c0-.997.779-1.805 1.741-1.805s1.741.808 1.741 1.805zM13.345 25.984c0 .997-.779 1.805-1.741 1.805s-1.741-.808-1.741-1.805c0-.997.779-1.805 1.741-1.805s1.741.808 1.741 1.805zM17.696 23.277c0 .997-.779 1.805-1.741 1.805s-1.741-.808-1.741-1.805c0-.997.779-1.805 1.741-1.805s1.741.808 1.741 1.805zM21.758 20.871c0 .997-.779 1.805-1.741 1.805s-1.741-.808-1.741-1.805c0-.997.779-1.805 1.741-1.805s1.741.808 1.741 1.805zM14.504 29.895c0 .997-.779 1.805-1.741 1.805s-1.741-.808-1.741-1.805c0-.997.779-1.805 1.741-1.805s1.741.808 1.741 1.805zM18.276 27.488c0 .997-.779 1.805-1.741 1.805s-1.741-.808-1.741-1.805c0-.997.779-1.805 1.741-1.805s1.741.808 1.741 1.805zM22.629 24.781c0 .997-.779 1.805-1.741 1.805s-1.741-.808-1.741-1.805c0-.997.779-1.805 1.741-1.805s1.741.808 1.741 1.805zM26.689 22.375c0 .997-.779 1.805-1.741 1.805s-1.741-.808-1.741-1.805c0-.997.779-1.805 1.741-1.805s1.741.808 1.741 1.805z"/><path fill="#f8d24e" style="fill:var(--color1,#f8d24e)" d="M20.888 30.196c0 .997-.779 1.805-1.741 1.805s-1.741-.808-1.741-1.805c0-.997.779-1.805 1.741-1.805s1.741.808 1.741 1.805zM24.659 27.789c0 .997-.779 1.805-1.741 1.805s-1.741-.808-1.741-1.805c0-.997.779-1.805 1.741-1.805s1.741.808 1.741 1.805zM29.011 25.082c0 .997-.779 1.805-1.741 1.805s-1.741-.808-1.741-1.805c0-.997.779-1.805 1.741-1.805s1.741.808 1.741 1.805zM33.072 22.676c0 .997-.779 1.805-1.741 1.805s-1.741-.808-1.741-1.805c0-.997.779-1.805 1.741-1.805s1.741.808 1.741 1.805zM28.431 30.195c0 .997-.779 1.805-1.741 1.805s-1.741-.808-1.741-1.805c0-.997.779-1.805 1.741-1.805s1.741.808 1.741 1.805zM32.202 27.789c0 .997-.779 1.805-1.741 1.805s-1.741-.808-1.741-1.805c0-.997.779-1.805 1.741-1.805s1.741.808 1.741 1.805zM36.554 25.082c0 .997-.779 1.805-1.741 1.805s-1.741-.808-1.741-1.805c0-.997.779-1.805 1.741-1.805s1.741.808 1.741 1.805zM40.616 22.676c0 .997-.779 1.805-1.741 1.805s-1.741-.808-1.741-1.805c0-.997.779-1.805 1.741-1.805s1.741.808 1.741 1.805z"/><path fill="#f8d24e" style="fill:var(--color1,#f8d24e)" d="M34.812 29.895c0 .997-.779 1.805-1.741 1.805s-1.741-.808-1.741-1.805c0-.997.779-1.805 1.741-1.805s1.741.808 1.741 1.805zM38.583 27.488c0 .997-.779 1.805-1.741 1.805s-1.741-.808-1.741-1.805c0-.997.779-1.805 1.741-1.805s1.741.808 1.741 1.805zM42.936 24.781c0 .997-.779 1.805-1.741 1.805s-1.741-.808-1.741-1.805c0-.997.779-1.805 1.741-1.805s1.741.808 1.741 1.805zM46.996 22.375c0 .997-.779 1.805-1.741 1.805s-1.741-.808-1.741-1.805c0-.997.779-1.805 1.741-1.805s1.741.808 1.741 1.805zM42.064 29.594c0 .997-.779 1.805-1.741 1.805s-1.741-.808-1.741-1.805c0-.997.779-1.805 1.741-1.805s1.741.808 1.741 1.805zM45.836 27.187c0 .997-.779 1.805-1.741 1.805s-1.741-.808-1.741-1.805c0-.997.779-1.805 1.741-1.805s1.741.808 1.741 1.805zM50.188 24.481c0 .997-.779 1.805-1.741 1.805s-1.741-.808-1.741-1.805c0-.997.779-1.805 1.741-1.805s1.741.808 1.741 1.805zM54.249 22.074c0 .997-.779 1.805-1.741 1.805s-1.741-.808-1.741-1.805c0-.997.779-1.805 1.741-1.805s1.741.808 1.741 1.805z"/><path fill="#f8d24e" style="fill:var(--color1,#f8d24e)" d="M48.737 21.773c0 .997-.779 1.805-1.741 1.805s-1.741-.808-1.741-1.805c0-.997.779-1.805 1.741-1.805s1.741.808 1.741 1.805zM52.508 19.367c0 .997-.779 1.805-1.741 1.805s-1.741-.808-1.741-1.805c0-.997.779-1.805 1.741-1.805s1.741.808 1.741 1.805zM56.86 16.66c0 .997-.779 1.805-1.741 1.805s-1.741-.808-1.741-1.805c0-.997.779-1.805 1.741-1.805s1.741.808 1.741 1.805zM60.921 14.254c0 .997-.779 1.805-1.741 1.805s-1.741-.808-1.741-1.805c0-.997.779-1.805 1.741-1.805s1.741.808 1.741 1.805z"/></symbol><symbol id="icon-Arrow" viewBox="0 0 82 32"><path fill="#fcfcfc" style="fill:var(--color1,#fcfcfc)" d="M81.414 17.414a2 2 0 0 0 0-2.828L68.686 1.858a2 2 0 1 0-2.828 2.828L77.172 16 65.858 27.314a2 2 0 1 0 2.828 2.828l12.728-12.728zM0 18h80v-4H0v4z"/></symbol></defs></svg>